<?xml version="1.0" encoding="UTF-8"?>
<svg version="1.1" xmlns="http://www.w3.org/2000/svg" width="615" height="479">
<path d="M0 0 C4.87274178 1.58669241 8.53389673 4.37308509 12.5625 7.4375 C13.61932983 8.23776611 13.61932983 8.23776611 14.69750977 9.05419922 C52.93148615 38.39161508 72.96106247 82.76067492 79.16235352 129.84375 C79.4560207 132.2277708 79.73269557 134.61289691 80 137 C80.13148438 138.11761719 80.26296875 139.23523438 80.3984375 140.38671875 C85.47987625 192.91780848 72.18986939 249.27431243 38.33154297 290.41455078 C-17.10655925 356.42390828 -116.17134314 391.45528691 -203 408 C-203.66 408 -204.32 408 -205 408 C-204.39964831 404.30642169 -203.36220317 401.3496067 -201.69018555 398.00805664 C-201.20845383 397.03836441 -200.72672211 396.06867218 -200.23039246 395.06959534 C-199.70448013 394.02698044 -199.17856781 392.98436554 -198.63671875 391.91015625 C-198.08949661 390.81521347 -197.54227448 389.72027069 -196.97846985 388.59214783 C-195.81363685 386.26482402 -194.64584579 383.93897876 -193.4753418 381.61450195 C-191.7254746 378.1379462 -189.98596836 374.65636781 -188.24804688 371.17382812 C-181.5135259 357.72231398 -174.52678238 344.44145755 -167.25149536 331.27523804 C-165.55996782 328.20001465 -163.9056774 325.10666002 -162.2578125 322.0078125 C-155.088413 308.5355101 -147.63660568 295.27022969 -139.85791016 282.140625 C-138.22630936 279.38255501 -136.60234691 276.62015188 -134.98200989 273.85545349 C-127.9351407 261.83511985 -120.82108411 249.88476468 -113.13671875 238.2578125 C-111.35400802 235.53974898 -109.64610213 232.80210265 -108 230 C-117.42165496 237.90987078 -126.0626955 246.60891552 -134 256 C-134.80824219 256.93070312 -135.61648438 257.86140625 -136.44921875 258.8203125 C-143.7262877 267.2376893 -150.46498175 275.99717084 -157 285 C-157.55059082 285.75667969 -158.10118164 286.51335937 -158.66845703 287.29296875 C-173.3564194 307.58692761 -185.83531323 329.12619295 -198 351 C-198.33 351 -198.66 351 -199 351 C-199.52704637 315.37571977 -195.02673276 281.93451071 -184 248 C-183.72043457 247.12843262 -183.44086914 246.25686523 -183.15283203 245.35888672 C-171.28057204 208.71636567 -152.25027942 173.68670507 -126.08984375 145.2734375 C-124.14128585 143.15369788 -122.25242667 140.99516531 -120.375 138.8125 C-114.68347911 132.31533004 -108.60411735 126.71768145 -101.86328125 121.30859375 C-100.0491531 119.84590652 -98.25231811 118.3612826 -96.48046875 116.84765625 C-84.60720966 106.7617695 -71.41661658 98.73452895 -57.9375 91 C-43.92358277 82.93583562 -30.93032596 74.38481595 -19.3203125 63.08203125 C-17 61 -17 61 -14 60 C-13.29653594 58.68570911 -12.63622108 57.34812646 -12 56 C-10.75692461 54.4358654 -9.48304216 52.89596154 -8.1875 51.375 C0.24307313 40.98596342 4.01471757 30.38250708 3 17 C2.21589656 11.29536339 1.1238301 5.64590838 0 0 Z M18 32 C17.79246094 32.71542969 17.58492187 33.43085937 17.37109375 34.16796875 C6.19684648 70.30894424 -26.44391687 89.99592099 -57.33203125 108.140625 C-66.39662718 113.47513716 -75.11178203 118.85038349 -83.23828125 125.55419922 C-84.62645934 126.69344405 -86.02770741 127.81676345 -87.43359375 128.93408203 C-94.29550983 134.43406328 -100.66424608 140.27709629 -106.875 146.5 C-107.35144958 146.97699341 -107.82789917 147.45398682 -108.31878662 147.94543457 C-116.71951168 156.38999926 -124.20388303 165.21109758 -131 175 C-131.49612793 175.6997998 -131.99225586 176.39959961 -132.50341797 177.12060547 C-154.62509993 208.42834954 -173.41202687 247.65317522 -179 286 C-178.67 286.99 -178.34 287.98 -178 289 C-177.33355469 288.00742187 -176.66710937 287.01484375 -175.98046875 285.9921875 C-166.48042762 271.94584736 -156.08283174 258.82394126 -145 246 C-144.33226562 245.21882812 -143.66453125 244.43765625 -142.9765625 243.6328125 C-130.92070421 229.86149612 -117.91358396 216.65876234 -103 206 C-102.44521973 205.59023926 -101.89043945 205.18047852 -101.31884766 204.75830078 C-84.04995362 192.05753102 -63.66775999 184.20078916 -44 176 C-44.39541992 176.46108154 -44.79083984 176.92216309 -45.19824219 177.3972168 C-45.72579102 178.01250244 -46.25333984 178.62778809 -46.796875 179.26171875 C-47.34666016 179.90286621 -47.89644531 180.54401367 -48.46289062 181.20458984 C-49.56705052 182.4942963 -50.66753164 183.78715567 -51.765625 185.08203125 C-54.9836834 188.83360986 -58.34137087 192.35545107 -61.875 195.8125 C-67.0102863 200.90124292 -71.53399419 206.3223474 -76 212 C-76.71027344 212.87011719 -77.42054688 213.74023438 -78.15234375 214.63671875 C-119.19203014 266.05909503 -150.05839981 328.19963622 -179 387 C-172.04636526 386.38152768 -165.67207889 384.63764987 -159 382.625 C-157.83154541 382.2741333 -156.66309082 381.9232666 -155.45922852 381.56176758 C-122.79812703 371.61731545 -91.58611702 359.24670765 -61 344 C-60.21866699 343.61134766 -59.43733398 343.22269531 -58.63232422 342.82226562 C-39.47324064 333.20603715 -21.20742133 321.76779997 -4 309 C-3.39929688 308.56155762 -2.79859375 308.12311523 -2.1796875 307.67138672 C36.00058383 279.67742677 56.91417505 238.49435032 64.2734375 192.296875 C71.09866251 144.89028978 63.14002475 91.00138373 35.125 51.1875 C30.0442847 44.5731807 24.62144207 38.1611005 19 32 C18.67 32 18.34 32 18 32 Z " fill="#1AAF68" transform="translate(497,71)"/>
<path d="M0 0 C0.10957031 1.25554688 0.21914062 2.51109375 0.33203125 3.8046875 C1.96594908 22.5314391 1.96594908 22.5314391 12 38 C18.70415267 43.43245277 26.0846051 47.25653053 33.875 50.875 C34.96707764 51.3918335 36.05915527 51.90866699 37.18432617 52.44116211 C43.04713969 55.20277154 48.94292104 57.87824252 54.87451172 60.48828125 C89.84966712 75.89892453 121.47345813 98.60009448 145 129 C145.42394043 129.5475293 145.84788086 130.09505859 146.28466797 130.65917969 C190.739859 188.51427302 211.48590023 263.60363857 210 336 C207.27647677 333.57847528 205.80152324 331.01927575 204.13671875 327.79296875 C203.58677246 326.74230225 203.03682617 325.69163574 202.47021484 324.60913086 C201.88191895 323.47999268 201.29362305 322.35085449 200.6875 321.1875 C181.36525375 284.73676659 156.53481622 250.8635704 127 222 C130.37392765 227.30776423 134.00121987 232.35951643 137.875 237.3125 C142.57229732 243.34514064 146.84217119 249.58130339 151 256 C151.79206172 257.1946123 152.58507754 258.3885924 153.37890625 259.58203125 C172.16837099 288.00234883 188.62050002 317.99789094 203.875 348.4375 C204.27007751 349.22397919 204.66515503 350.01045837 205.07220459 350.82077026 C206.1966379 353.06413159 207.31453691 355.31060591 208.4296875 357.55859375 C208.76226562 358.22298462 209.09484375 358.88737549 209.4375 359.57189941 C211.27773072 363.30821986 212.77966306 367.01798918 214 371 C205.97444285 370.51119628 198.32437783 369.46766115 190.5 367.625 C189.406875 367.36879883 188.31375 367.11259766 187.1875 366.84863281 C117.99058118 350.06608364 48.95602794 319.39472569 -4 271 C-4.76441406 270.30777344 -5.52882812 269.61554688 -6.31640625 268.90234375 C-12.60767511 262.91610611 -17.78841632 255.91932265 -23 249 C-23.6290625 248.16597656 -24.258125 247.33195313 -24.90625 246.47265625 C-35.11909509 232.38182045 -42.70400636 217.18032888 -49 201 C-49.29390625 200.24638184 -49.5878125 199.49276367 -49.890625 198.71630859 C-66.8318605 154.25555433 -66.60686287 101.62932777 -48.04589844 57.74414062 C-41.71456731 43.66449684 -18.43642745 0 0 0 Z M-12 28 C-35.22406662 52.74469003 -47.00547851 87.4024696 -48 121 C-48.03996094 122.11503906 -48.07992187 123.23007813 -48.12109375 124.37890625 C-49.05643285 175.38239703 -29.93618288 221.86292914 4.19921875 259.18359375 C23.71348431 278.8067255 47.91760292 293.69353489 72 307 C73.28003906 307.70890381 73.28003906 307.70890381 74.5859375 308.43212891 C105.44560663 325.37214156 138.44389339 338.33537406 172.1875 348.25 C173.20479691 348.5518219 173.20479691 348.5518219 174.24264526 348.85974121 C176.15214538 349.42235944 178.06622177 349.96937555 179.98046875 350.515625 C181.07254639 350.82790039 182.16462402 351.14017578 183.28979492 351.46191406 C186.08007074 352.24826519 186.08007074 352.24826519 189 351 C181.55347158 335.66571768 173.55544217 320.74265707 165 306 C164.46616699 305.07687012 163.93233398 304.15374023 163.38232422 303.20263672 C151.55029752 282.78906099 139.08549662 262.93860351 125 244 C124.1675554 242.86879365 123.33549397 241.73730518 122.50390625 240.60546875 C114.28442278 229.50845381 105.48876906 219.02549412 96 209 C94.6696875 207.58847656 94.6696875 207.58847656 93.3125 206.1484375 C80.27112387 192.69004063 65.04725035 183.53450799 49.13574219 173.91650391 C44.38135538 171.01071626 39.68618327 168.01421961 35 165 C63.25761267 170.81999611 91.19855888 176.96965851 115 194 C115.54462891 194.38913574 116.08925781 194.77827148 116.65039062 195.17919922 C125.35537096 201.48075824 133.27886817 208.53927733 141 216 C141.93344238 216.90057129 141.93344238 216.90057129 142.88574219 217.81933594 C150.80136317 225.49713155 158.20122211 233.30138787 165 242 C165.91529124 243.11678314 166.83343228 244.2312347 167.75390625 245.34375 C175.80824563 255.13777356 182.97443625 265.44968287 190 276 C191.3193373 272.29216856 190.68926244 269.60385397 189.8125 265.8203125 C189.52971191 264.5926416 189.24692383 263.3649707 188.95556641 262.10009766 C188.63815211 260.77479928 188.31960344 259.44977215 188 258.125 C187.84005554 257.4521698 187.68011108 256.7793396 187.51531982 256.08612061 C184.59870903 243.85087482 181.15168684 231.87485584 177 220 C176.67837891 219.0605957 176.35675781 218.12119141 176.02539062 217.15332031 C164.69203046 184.30411294 147.81253127 152.70829249 124 127.15234375 C122.15918281 125.17130806 120.42275357 123.13562746 118.6875 121.0625 C95.29335949 94.41027143 62.7630255 79.20954427 31 65.0625 C11.71947403 56.46262183 -1.95578331 47.53165946 -11 28 C-11.33 28 -11.66 28 -12 28 Z " fill="#1AAE68" transform="translate(64,0)"/>
<path d="M0 0 C0.66 0.33 1.32 0.66 2 1 C-5.59 8.59 -13.18 16.18 -21 24 C-21.66 23.67 -22.32 23.34 -23 23 C-15.90092645 14.6801863 -8.08772182 7.33992393 0 0 Z " fill="#106D41" transform="translate(395,192)"/>
<path d="M0 0 C0.66 0.33 1.32 0.66 2 1 C-3.94 6.94 -9.88 12.88 -16 19 C-16.66 18.67 -17.32 18.34 -18 18 C-12.37361021 11.50903494 -6.55902307 5.55113536 0 0 Z " fill="#106F42" transform="translate(55,6)"/>
<path d="M0 0 C3.63 0.66 7.26 1.32 11 2 C10.01 2.99 9.02 3.98 8 5 C4.35446828 3.7191375 2.83328987 2.83328987 0 0 Z " fill="#0C5532" transform="translate(98,164)"/>
</svg>
